<svg xmlns="http://www.w3.org/2000/svg" width="16" height="16" viewBox="0 0 16 16"><g><g><path fill="#fe3e57" d="M16 3.125v11A1.877 1.877 0 0 1 14.125 16H1.875A1.877 1.877 0 0 1 0 14.125v-11C0 2.09.841 1.25 1.875 1.25h.75V0h1.25v1.25h8.25V0h1.25v1.25h.75c1.034 0 1.875.84 1.875 1.875zm-14.75 0v1.5h13.5v-1.5a.626.626 0 0 0-.625-.625h-.75v1.25h-1.25V2.5h-8.25v1.25h-1.25V2.5h-.75a.626.626 0 0 0-.625.625zm13.5 11v-8.25H1.25v8.25c0 .344.28.625.625.625h12.25c.345 0 .625-.28.625-.625zM2.375 7.187h1.25v1.25h-1.25zm2.5 0h1.25v1.25h-1.25zm2.5 0h1.25v1.25h-1.25zm2.5 0h1.25v1.25h-1.25zm2.5 0h1.25v1.25h-1.25zm-10 2.5h1.25v1.25h-1.25zm2.5 0h1.25v1.25h-1.25zm2.5 0h1.25v1.25h-1.25zm2.5 0h1.25v1.25h-1.25zm-7.5 2.5h1.25v1.25h-1.25zm2.5 0h1.25v1.25h-1.25zm2.5 0h1.25v1.25h-1.25zm2.5 0h1.25v1.25h-1.25zm2.5-2.5h1.25v1.25h-1.25z"/></g></g></svg>