<svg xmlns="http://www.w3.org/2000/svg" width="16" height="16" viewBox="0 0 16 16"><g><g><path fill="#fe3e57" d="M16 .625V13c0 .345-.28.624-.625.624h-5.53L8.527 15.71a.625.625 0 0 1-1.056 0l-1.317-2.085H.625A.625.625 0 0 1 0 13V.625C0 .28.28 0 .625 0h14.75c.345 0 .625.28.625.625zm-1.25.625H1.25v11.125H6.5c.214 0 .414.11.528.29L8 14.206l.971-1.54a.625.625 0 0 1 .529-.29h5.25zM7.219 6.812a.781.781 0 1 1 1.562 0 .781.781 0 0 1-1.562 0zm-3.125 0a.781.781 0 1 1 1.562 0 .781.781 0 0 1-1.562 0zm6.25 0a.781.781 0 1 1 1.562 0 .781.781 0 0 1-1.562 0z"/></g></g></svg>