<svg xmlns="http://www.w3.org/2000/svg" width="18" height="20" viewBox="0 0 18 20"><g><g><path fill="#fe3e57" d="M5.751 13.557L.181 19a1.706 1.706 0 0 1-.18-.754V7.938l5.75 5.619zM18 7.937v10.31c0 .27-.068.523-.18.753l-5.571-5.443 5.751-5.62zM9.591 6.483c-.066.349-.176.627-.591.627-.331 0-.6-.263-.6-.586 0-.324.269-.586.6-.586a.59.59 0 0 1 .591.545zm7.38 13.347c-.236.11-.495.176-.772.176h-14.4c-.276 0-.535-.067-.77-.176l5.82-5.686h4.302zM.6 6.866L2.4 5.108v3.517zm14.998 1.759V5.108l1.8 1.758zM6.85 12.97l-3.25-3.174V.637c0-.353.295-.64.657-.64h9.374a.76.76 0 0 1 .77.75v9.05l-3.25 3.174zm-.11-2.991c1.274.797 2.801.84 4.176.222.723-.324.214-1.389-.501-1.064-1.035.464-2.137.411-3.028-.145A2.908 2.908 0 0 1 6 6.523c0-1.616 1.345-2.931 3-2.931 1.654 0 3 1.315 3 2.93 0 .776-1.2.776-1.2 0 0-.969-.808-1.758-1.8-1.758-.993 0-1.8.79-1.8 1.759 0 .97.807 1.758 1.8 1.758.462 0 .88-.176 1.199-.457 1.166 1.03 3 .206 3-1.301C13.2 4.26 11.315 2.42 9 2.42c-2.315 0-4.2 1.84-4.2 4.103 0 1.405.726 2.697 1.94 3.457z"/></g></g></svg>