<?xml version="1.0" encoding="UTF-8"?>
<!DOCTYPE svg PUBLIC "-//W3C//DTD SVG 1.1//EN" "http://www.w3.org/Graphics/SVG/1.1/DTD/svg11.dtd">
<svg xmlns="http://www.w3.org/2000/svg" version="1.1" width="19px" height="20px" style="shape-rendering:geometricPrecision; text-rendering:geometricPrecision; image-rendering:optimizeQuality; fill-rule:evenodd; clip-rule:evenodd" xmlns:xlink="http://www.w3.org/1999/xlink">
<g><path style="opacity:0.652" fill="#28282c" d="M 3.5,-0.5 C 6.16667,-0.5 8.83333,-0.5 11.5,-0.5C 15.4897,2.95756 16.4897,7.2909 14.5,12.5C 15.5213,14.188 16.8546,15.5213 18.5,16.5C 18.5,17.5 18.5,18.5 18.5,19.5C 17.5,19.5 16.5,19.5 15.5,19.5C 13.2048,15.4568 9.8715,14.2901 5.5,16C 2.85408,15.1959 0.854084,13.6959 -0.5,11.5C -0.5,8.83333 -0.5,6.16667 -0.5,3.5C 0.5,1.83333 1.83333,0.5 3.5,-0.5 Z M 4.5,2.5 C 10.8495,1.52494 13.3495,4.19161 12,10.5C 8.85495,14.0641 5.85495,14.0641 3,10.5C 2.10929,7.5024 2.60929,4.83574 4.5,2.5 Z"/></g>
</svg>
