<svg xmlns="http://www.w3.org/2000/svg" width="20" height="20" viewBox="0 0 20 20"><g><g><path fill="#fe3e57" d="M19.477 17.249l-.415.414-4.97-4.973.415-.415c.664-.665 1.822-.663 2.485 0l2.485 2.487a1.758 1.758 0 0 1 0 2.487zm-6.235-3.754l4.958 4.963a6.283 6.283 0 0 1-8.587-.305L1.84 10.37C-.515 8.013-.598 4.263 1.535 1.775l4.958 4.962c-.405.522-.389 1.27.09 1.748l4.912 4.92c.478.48 1.224.496 1.747.09zm-5.944-7.61L2.328.912l.415-.415c.664-.665 1.822-.664 2.485 0l2.485 2.487a1.758 1.758 0 0 1 0 2.487z"/></g></g></svg>