<svg xmlns="http://www.w3.org/2000/svg" width="16" height="16" viewBox="0 0 16 16"><g><g><path fill="#fe3e57" d="M16 16h-1.25A6.758 6.758 0 0 0 8 9.25 6.758 6.758 0 0 0 1.25 16H0c0-2.137.832-4.146 2.343-5.657a7.975 7.975 0 0 1 3.04-1.907 4.623 4.623 0 0 1-2.008-3.811A4.63 4.63 0 0 1 8 0a4.63 4.63 0 0 1 4.625 4.625c0 1.58-.796 2.976-2.008 3.811a7.974 7.974 0 0 1 3.04 1.907A7.947 7.947 0 0 1 16 16zM8 8a3.379 3.379 0 0 0 3.375-3.375A3.379 3.379 0 0 0 8 1.25a3.379 3.379 0 0 0-3.375 3.375A3.379 3.379 0 0 0 8 8z"/></g></g></svg>